<svg width="32" height="32" viewBox="0 0 32 32" fill="none" xmlns="http://www.w3.org/2000/svg">
<g clip-path="url(#clip0_1401_225)">
<rect width="32" height="32" rx="8" fill="#30302E"/>
<path d="M9.00387 20.1734L13.608 17.5917L13.6839 17.3655L13.608 17.2396H13.3803L12.6087 17.1927L9.97782 17.1222L7.70106 17.0284L5.48755 16.911L4.93101 16.7937L4.41241 16.1013L4.46301 15.761L4.93101 15.4441L5.60139 15.5028L7.08128 15.6084L9.30744 15.761L10.9138 15.8548L13.3044 16.1013H13.6839L13.7345 15.9487L13.608 15.8548L13.5068 15.761L11.2047 14.2002L8.71295 12.5573L7.41014 11.6067L6.71447 11.1256L6.36031 10.6796L6.20852 9.69386L6.84096 8.98975L7.70106 9.04843L7.91609 9.1071L8.78885 9.77601L10.6482 11.2194L13.0767 13.0032L13.4309 13.2966L13.5735 13.2003L13.5953 13.1323L13.4309 12.8624L12.1154 10.4801L10.7114 8.05093L10.079 7.04171L9.91458 6.44321C9.85088 6.19205 9.81339 5.98426 9.81339 5.72736L10.5344 4.74161L10.9391 4.61252L11.9131 4.74161L12.3178 5.09366L12.925 6.47842L13.8989 8.64943L15.4167 11.6067L15.8594 12.4868L16.0998 13.2966L16.1883 13.543H16.3401V13.4022L16.4666 11.7358L16.6943 9.69386L16.9219 7.06518L16.9978 6.32586L17.3646 5.43398L18.0983 4.95284L18.6674 5.22275L19.1354 5.89166L19.0722 6.32586L18.7939 8.13308L18.25 10.9613L17.8959 12.8624H18.0983L18.3386 12.6159L19.2999 11.3485L20.9063 9.33007L21.6146 8.53208L22.4494 7.65194L22.9806 7.22947H23.9925L24.7261 8.33258L24.3973 9.47089L23.3601 10.7852L22.5 11.9001L21.2667 13.5524L20.5015 14.8808L20.5701 14.9904L20.7545 14.9747L23.5372 14.3762L25.0424 14.1063L26.8385 13.8012L27.648 14.1767L27.7365 14.564L27.4203 15.3502L25.4977 15.8196L23.2463 16.2773L19.8935 17.0666L19.8564 17.0964L19.9002 17.1614L21.4122 17.2983L22.0573 17.3335H23.6384L26.5855 17.5564L27.3571 18.0611L27.8124 18.683L27.7365 19.1642L26.5475 19.7627L24.9538 19.3871L21.2225 18.4953L19.945 18.1784H19.7679V18.284L20.8304 19.3285L22.7909 21.0887L25.2321 23.3654L25.3586 23.9287L25.0424 24.3746L24.7135 24.3277L22.5632 22.7082L21.7284 21.9806L19.8564 20.3964H19.7299V20.5607L20.16 21.1944L22.4494 24.6328L22.5632 25.6889L22.3988 26.0293L21.8043 26.2405L21.1592 26.1231L19.8058 24.2338L18.4271 22.1214L17.314 20.2203L17.1796 20.3052L16.5172 27.3788L16.2136 27.7426L15.5053 28.0125L14.9108 27.5666L14.5946 26.839L14.9108 25.3956L15.2903 23.5179L15.5938 22.0276L15.8721 20.1734L16.042 19.554L16.027 19.5126L15.8913 19.5354L14.4934 21.4525L12.3684 24.3277L10.6861 26.1231L10.2814 26.2874L9.58571 25.9237L9.64895 25.2782L10.0411 24.7032L12.3684 21.7459L13.7724 19.9035L14.6773 18.8459L14.6685 18.6929L14.6185 18.6887L8.43468 22.7199L7.33425 22.8608L6.8536 22.4148L6.91685 21.6872L7.14452 21.4525L9.00387 20.1734Z" fill="#D97757"/>
</g>
<defs>
<clipPath id="clip0_1401_225">
<rect width="32" height="32" rx="8" fill="white"/>
</clipPath>
</defs>
</svg>
